<svg id="gibr_net" data-name="gibr.net" xmlns="http://www.w3.org/2000/svg" viewBox="0 0 128 128">
<g fill="#333333">
<path d="M16,74v46a8,8,0,0,0,16,0V74Z"/>
<path d="M56,120a8,8,0,0,0,16,0v-5H56Z"/>
<path d="M64,0a8,8,0,0,0-8,8v6H72V8A8,8,0,0,0,64,0Z"/>
<path d="M8,16A8,8,0,0,0,8,32h6V16Z"/>
<path d="M120,56H74V72h46a8,8,0,0,0,0-16Z"/>
<path d="M8,96a8,8,0,0,0,0,16h6V96Z"/>
<path d="M104,0a8,8,0,0,0-8,8V38H87V50h9v4h16V8A8,8,0,0,0,104,0Z"/>
<path d="M72,16H34V37.37A12,12,0,0,1,44,32H94V16Z"/>
<path d="M32,44V8A8,8,0,0,0,16,8V54H37.37A12,12,0,0,1,32,44Z"/>
<path d="M48.5,87H38v3H48.5a1.5,1.5,0,0,0,0-3Z"/>
<path d="M48.5,78H38v3H48.5a1.5,1.5,0,0,0,0-3Z"/>
<path d="M88.5,78H78v3H88.5a1.5,1.5,0,0,0,0-3Z"/>
<path d="M90,96V88.5A1.5,1.5,0,0,0,88.5,87H78v9H34v16H94V96Z"/>
<path d="M120,16a8,8,0,0,1,0,16h-6V16Z"/>
<path d="M72,38V34H50.63a13.56,13.56,0,0,1,3.76,4H44a6,6,0,0,0,0,12c.22,0,.43,0,.64,0l.17,0a3.54,3.54,0,0,0,.45-.08l.17,0a3.6,3.6,0,0,0,.44-.12l.14-.05c.15-.06.3-.11.44-.18l.11,0,.45-.23.07,0a3.52,3.52,0,0,0,.45-.3l0,0a4,4,0,0,0,.45-.37h0c.14-.14.29-.28.42-.43h0a5.53,5.53,0,0,0,.72-1H44V41H55.62A11.35,11.35,0,0,1,56,44V79.5A7.18,7.18,0,0,1,54.5,84,7.06,7.06,0,0,1,56,88.5,7.41,7.41,0,0,1,53.6,94H72V50h9V38Z"/>
<path d="M120,96a8,8,0,0,1,0,16h-6V96Z"/>
<path d="M96,74H93.6A7.46,7.46,0,0,1,96,79.28,7.15,7.15,0,0,1,94.5,83.5,7.06,7.06,0,0,1,96,88h0v32a8,8,0,0,0,16,0V74Z"/>
<path d="M50,56V54.39A11.51,11.51,0,0,1,44,56H8A8,8,0,0,0,8,72H48.5A7.41,7.41,0,0,1,54,74.4V56H50Z"/>
</g>
</svg>
